<svg width="80" height="82" viewBox="0 0 80 82" fill="none" xmlns="http://www.w3.org/2000/svg">
<path fill-rule="evenodd" clip-rule="evenodd" d="M43.947 70.9279C44.1348 62.6681 44.3751 47.8806 43.9745 38.3037C47.674 37.5303 50.1648 36.9416 53.5026 34.198C55.3187 32.7051 56.1 30.8596 56.8647 29.054C57.7032 27.0742 58.521 25.1422 60.6603 23.7761C60.8176 23.6756 60.9741 23.577 61.1295 23.4803C61.5435 23.5933 61.9794 23.6514 62.4258 23.6476C64.2197 23.6313 65.8261 22.6269 66.483 21.0887C68.1741 20.7272 69.928 20.7951 71.9081 21.4602C76.5595 23.0224 78.575 26.5644 79.7052 31.3673C80.8556 36.2567 78.5762 45.7291 73.9534 53.2406C73.7814 53.5198 73.6106 53.7939 73.4398 54.0637C73.3508 53.0535 73.2635 52.386 73.1864 52.2111C71.9534 49.4181 68.4571 46.1542 67.8182 46.5501C62.8331 49.638 55.1642 49.3805 52.2244 46.8073C51.9304 46.5501 48.653 49.6076 48.0063 52.2111C47.8276 52.9309 47.2107 64.0044 47.3365 71.0141C46.2603 71.0903 45.1441 71.0678 43.947 70.9279ZM65.773 41.146V44.8774C62.7055 46.8073 57.465 46.9361 54.0139 44.8774V41.4032C56.4422 39.6021 63.4722 39.0873 65.773 41.146Z" fill="#FDC800"/>
<path fill-rule="evenodd" clip-rule="evenodd" d="M25.8143 12.9371C23.327 12.9771 20.8349 13.4906 19.6309 14.3836V19.2729C21.058 20.1473 23.3626 20.5969 25.6762 20.6517C25.5854 21.042 25.487 21.44 25.3827 21.8461C25.3109 22.1248 25.2306 22.4013 25.1421 22.6752C22.0865 22.4676 19.2935 21.5733 17.8415 20.3023C12.4049 22.5238 6.47065 27.5075 5.95444 29.4374C5.7632 30.1524 5.58373 30.9197 5.41573 31.7346C2.26216 30.2348 0.608088 27.3609 0.0745995 22.8754C-0.801428 15.5098 6.26163 9.41808 9.53295 7.82158C13.7512 5.76295 19.3888 5.11398 23.3375 9.10827C24.5769 10.362 25.3643 11.623 25.8143 12.9371Z" fill="#FDC800"/>
<path d="M19.6309 14.3836C22.0595 12.5823 29.7284 12.325 32.0291 14.3836M19.6309 14.3836V19.2729C22.5707 21.0742 29.2341 21.0728 32.0291 19.5303V14.3836M19.6309 14.3836C23.082 16.0563 29.2703 16.2579 32.0291 14.3836M4.46496 37.8006C4.84522 34.5819 5.33897 31.7384 5.95442 29.4374C6.47065 27.5075 12.4049 22.5238 17.8415 20.3023C20.7813 22.8756 29.2172 23.9048 34.2023 20.8169C38.8145 23.7355 40.6466 25.6494 42.8936 29.4374C45.1409 33.2257 43.7885 77.0436 43.7885 77.0436C36.6306 82.1901 12.3452 82.5761 4.16499 76.6576C3.88122 72.8801 3.67976 68.9253 3.56832 64.9493M4.46496 37.8006C9.25467 39.5545 14.4718 39.918 26.6607 39.8593V67.2652C21.0368 69.9671 7.74376 68.1659 3.56832 64.9493M4.46496 37.8006C3.55889 45.4704 3.29705 55.2722 3.56832 64.9493M34.2023 26.0923C35.1211 26.5416 35.526 27.0263 36.2472 27.8935M34.2023 29.4374C34.9161 30.4628 35.3818 30.7892 36.2472 31.2389M39.9538 68.9379C40.1692 69.5606 40.2113 70.0126 39.9538 71.2538M37.0139 74.7277C37.9859 74.8115 38.451 74.4952 39.3147 74.0844M6.97687 71.897C6.83039 72.525 6.84133 72.9811 6.97687 74.0844M54.0139 41.4033C56.4422 39.6021 63.4723 39.0873 65.773 41.146M54.0139 41.4033V44.8774C57.465 46.9361 62.7053 46.8073 65.773 44.8774V41.146M54.0139 41.4033C57.465 43.076 63.0142 43.0205 65.773 41.146M52.2244 50.2812C51.747 50.789 51.5041 51.0876 51.2019 51.6967M52.9911 53.3694L52.2244 54.1414M70.2466 72.4117C70.5975 73.5659 70.6766 74.0193 70.7578 74.7277M66.6676 75.4996C67.5026 75.6307 67.9067 75.6815 68.585 75.7569M50.9462 10.9096C51.6481 11.9648 51.6796 12.5564 50.9462 13.6116M52.2244 46.8073C55.1643 49.3805 62.8331 49.638 67.818 46.5501C68.4571 46.1542 71.9534 49.4181 73.1864 52.2111C73.6977 53.3694 74.6483 76.1428 73.6977 77.0436C71.5248 79.1023 53.7581 81.5469 48.0063 76.6576C46.5978 75.4605 47.7508 53.2406 48.0063 52.2111C48.653 49.6076 51.9304 46.5501 52.2244 46.8073ZM49.0288 6.14907C45.7106 6.11394 42.8936 8.72714 42.8936 12.0677C42.8936 15.4082 45.7106 18.0214 49.0288 17.9863C52.3114 17.9516 55.0364 15.3722 55.0364 12.0677C55.0364 8.7632 52.3114 6.18381 49.0288 6.14907ZM61.5549 1.00237C59.6148 0.929995 57.9762 2.52188 57.9762 4.47633C57.9762 6.35978 59.4297 7.88054 61.2994 7.95032C63.2396 8.0227 64.8781 6.43082 64.8784 4.47633C64.8784 2.59292 63.4247 1.07213 61.5549 1.00237ZM62.4259 15.4129C60.0314 15.3911 57.9015 17.2498 57.9762 19.6589C58.0486 21.9999 60.0991 23.6686 62.4259 23.6476C64.7292 23.6266 66.7237 21.9766 66.7955 19.6589C66.8696 17.2725 64.7975 15.4345 62.4259 15.4129ZM68.8407 58.0982V67.4036C68.8407 67.5463 68.7353 67.6687 68.5943 67.6917C62.2676 68.7242 58.6472 68.671 52.4551 67.316C52.3213 67.2868 52.2244 67.1677 52.2244 67.0307V58.4663C52.2244 58.2885 52.3835 58.1525 52.5596 58.177C58.7905 59.0424 62.4007 58.9747 68.4907 57.8114C68.6711 57.777 68.8407 57.9145 68.8407 58.0982Z" stroke="black" stroke-width="2" stroke-linecap="round"/>
</svg>
