<svg width="88" height="88" viewBox="0 0 88 88" fill="none" xmlns="http://www.w3.org/2000/svg">
<g clip-path="url(#clip0_7_51)">
<path d="M87.7398 61.0012L81.2359 38.3628C80.5956 36.134 79.3198 34.2186 77.6194 32.8511C76.7683 32.1662 75.8113 31.6195 74.7766 31.2419C73.7433 30.8655 72.632 30.663 71.4938 30.663H70.0752C68.8686 29.068 65.8161 25.1812 63.834 23.9733C61.3183 22.4403 52.9693 22.9059 50.2611 21.1181C47.5516 19.3313 43.4772 19.0573 39.7899 18.7868C35.108 18.4413 31.0418 21.7862 28.9054 22.0292C26.769 22.2722 22.6856 23.772 20.7297 26.8048C19.4004 27.9506 18.1818 29.8208 17.6677 30.663H16.5076C15.3682 30.663 14.2581 30.8655 13.2234 31.2419C11.6713 31.8077 10.2938 32.7557 9.18758 33.9755C8.08225 35.1953 7.24436 36.6915 6.76414 38.3628L0.260219 61C0.0850781 61.61 0 62.2328 0 62.8511C0.0006875 64.1412 0.366266 65.4216 1.10619 66.5295V66.5306C1.65344 67.3489 2.38064 68.0267 3.23177 68.4996C4.08117 68.9724 5.05845 69.2393 6.06736 69.2381H81.9326C82.9416 69.2391 83.9188 68.9724 84.7682 68.4996C85.6194 68.0266 86.3467 67.3489 86.894 66.5306V66.5295C87.6337 65.4206 87.9995 64.1412 88.0002 62.8511C88 62.2328 87.9147 61.611 87.7398 61.0012ZM82.296 63.4562C82.2214 63.5671 82.1442 63.629 82.0815 63.6635C82.0182 63.6981 81.9756 63.7063 81.9326 63.7063H6.06719C6.02439 63.7063 5.98142 63.6981 5.91834 63.6635C5.85698 63.6288 5.77895 63.5669 5.70453 63.4562C5.6033 63.3074 5.53059 63.0834 5.53128 62.8511C5.53128 62.7414 5.54744 62.6307 5.57717 62.5271L12.0811 39.8898C12.4157 38.7272 13.0608 37.7934 13.8481 37.1607C14.2412 36.845 14.6695 36.6032 15.115 36.4413C15.5605 36.2794 16.0251 36.1946 16.5076 36.1946H71.4938C71.9751 36.1946 72.4396 36.2792 72.8857 36.4413C73.5534 36.6843 74.1835 37.1059 74.7135 37.6908C75.2431 38.2757 75.6688 39.0178 75.9191 39.8898L82.4228 62.5271C82.4526 62.6307 82.4675 62.7416 82.4675 62.8511C82.4694 63.0834 82.3967 63.3074 82.2955 63.4562H82.296Z" fill="black"/>
<path d="M61.841 46.4604C61.841 44.2592 60.0561 42.4748 57.8547 42.4748C55.7535 42.4748 54.0358 44.1031 53.8839 46.1661C52.5015 47.362 51.8308 46.9595 49.1363 46.9595C46.3114 46.9595 34.9231 47.4574 33.6581 46.053C33.4532 44.0435 31.7563 42.4746 29.6933 42.4746C27.4907 42.4746 25.7075 44.259 25.7075 46.4602C25.7075 47.9624 26.5372 49.269 27.764 49.9481C26.5372 50.6282 25.7075 51.9338 25.7075 53.4347C25.7075 55.6361 27.4907 57.4205 29.6933 57.4205C31.8935 57.4205 33.6784 55.6361 33.6784 53.4347C33.6784 53.3311 33.6701 53.2287 33.6622 53.1274C34.1411 52.6343 34.7569 52.19 35.4216 52.19C36.9158 52.19 49.1363 52.19 49.1363 52.19C49.1363 52.19 50.6313 52.19 52.1256 52.19C52.7909 52.19 53.406 52.6343 53.8849 53.1274C53.8771 53.2287 53.8687 53.3311 53.8687 53.4347C53.8687 55.6361 55.6531 57.4205 57.8545 57.4205C60.0559 57.4205 61.8408 55.6361 61.8408 53.4347C61.8408 51.9338 61.01 50.6284 59.7831 49.9481C61.0101 49.2692 61.841 47.9624 61.841 46.4604Z" fill="black"/>
</g>
<g clip-path="url(#clip1_7_51)">
<path d="M85.7516 60.2284L79.5433 38.6191C78.9322 36.4915 77.7144 34.6632 76.0913 33.3579C75.2789 32.7041 74.3653 32.1823 73.3777 31.8218C72.3913 31.4625 71.3305 31.2693 70.2441 31.2693H68.8899C67.7382 29.7468 64.8245 26.0366 62.9325 24.8836C60.5311 23.4203 52.5616 23.8648 49.9765 22.1582C47.3902 20.4526 43.5009 20.1911 39.9813 19.9329C35.5122 19.6031 31.6308 22.7959 29.5915 23.0279C27.5522 23.2599 23.6544 24.6915 21.7874 27.5864C20.5186 28.6802 19.3554 30.4653 18.8646 31.2693H17.7572C16.6696 31.2693 15.61 31.4625 14.6223 31.8218C13.1408 32.3619 11.8259 33.2669 10.77 34.4312C9.71488 35.5956 8.91507 37.0237 8.45668 38.6191L2.24839 60.2273C2.08121 60.8095 2 61.4041 2 61.9942C2.00066 63.2257 2.34962 64.4479 3.05591 65.5055V65.5065C3.57828 66.2876 4.27243 66.9346 5.08487 67.386C5.89566 67.8373 6.82852 68.0921 7.79157 68.091H80.2084C81.1715 68.0919 82.1043 67.8373 82.9151 67.386C83.7276 66.9345 84.4219 66.2876 84.9443 65.5065V65.5055C85.6504 64.447 85.9995 63.2257 86.0002 61.9942C86 61.4041 85.9186 60.8105 85.7516 60.2284ZM80.5553 62.5719C80.4841 62.6777 80.4104 62.7368 80.3505 62.7698C80.2901 62.8027 80.2495 62.8106 80.2084 62.8106H7.79141C7.75056 62.8106 7.70954 62.8027 7.64933 62.7698C7.59076 62.7366 7.51627 62.6776 7.44523 62.5719C7.3486 62.4298 7.2792 62.216 7.27986 61.9942C7.27986 61.8896 7.29528 61.7839 7.32366 61.685L13.532 40.0766C13.8514 38.9669 14.4671 38.0756 15.2187 37.4716C15.5939 37.1703 16.0027 36.9394 16.428 36.7849C16.8532 36.6303 17.2967 36.5494 17.7572 36.5494H70.2441C70.7035 36.5494 71.1469 36.6302 71.5727 36.7849C72.2101 37.0169 72.8115 37.4193 73.3175 37.9776C73.823 38.5359 74.2293 39.2443 74.4682 40.0766L80.6763 61.685C80.7047 61.7839 80.719 61.8897 80.719 61.9942C80.7208 62.216 80.6514 62.4298 80.5548 62.5719H80.5553Z" fill="#FDC800"/>
<path d="M61.0301 46.3486C61.0301 44.2474 59.3263 42.5441 57.225 42.5441C55.2193 42.5441 53.5797 44.0984 53.4347 46.0677C52.1151 47.2092 51.4749 46.825 48.9029 46.825C46.2064 46.825 35.3358 47.3003 34.1283 45.9597C33.9327 44.0415 32.3129 42.5439 30.3437 42.5439C28.2412 42.5439 26.5391 44.2472 26.5391 46.3484C26.5391 47.7823 27.331 49.0295 28.5021 49.6777C27.331 50.3269 26.5391 51.5731 26.5391 53.0059C26.5391 55.1072 28.2412 56.8105 30.3437 56.8105C32.4438 56.8105 34.1476 55.1072 34.1476 53.0059C34.1476 52.907 34.1398 52.8092 34.1322 52.7125C34.5893 52.2418 35.1771 51.8177 35.8115 51.8177C37.2379 51.8177 48.9029 51.8177 48.9029 51.8177C48.9029 51.8177 50.3299 51.8177 51.7563 51.8177C52.3914 51.8177 52.9786 52.2418 53.4356 52.7125C53.4283 52.8092 53.4202 52.907 53.4202 53.0059C53.4202 55.1072 55.1235 56.8105 57.2248 56.8105C59.3261 56.8105 61.0299 55.1072 61.0299 53.0059C61.0299 51.5731 60.2368 50.3271 59.0658 49.6777C60.237 49.0297 61.0301 47.7823 61.0301 46.3486Z" fill="#FDC800"/>
</g>
<defs>
<clipPath id="clip0_7_51">
<rect width="88" height="88" fill="white"/>
</clipPath>
<clipPath id="clip1_7_51">
<rect width="84" height="84" fill="white" transform="translate(2 2)"/>
</clipPath>
</defs>
</svg>
