<svg width="67" height="67" viewBox="0 0 67 67" fill="none" xmlns="http://www.w3.org/2000/svg">
<path d="M40 1H27C24.4141 1 21.9342 2.02723 20.1057 3.85571C18.2772 5.68419 17.25 8.16414 17.25 10.75V14H10.75C8.16414 14 5.68419 15.0272 3.85571 16.8557C2.02723 18.6842 1 21.1641 1 23.75V56.25C1 58.8359 2.02723 61.3158 3.85571 63.1443C5.68419 64.9728 8.16414 66 10.75 66H56.25C58.8359 66 61.3158 64.9728 63.1443 63.1443C64.9728 61.3158 66 58.8359 66 56.25V23.75C66 21.1641 64.9728 18.6842 63.1443 16.8557C61.3158 15.0272 58.8359 14 56.25 14H49.75V10.75C49.75 8.16414 48.7228 5.68419 46.8943 3.85571C45.0658 2.02723 42.5859 1 40 1ZM23.75 10.75C23.75 9.88805 24.0924 9.0614 24.7019 8.4519C25.3114 7.84241 26.138 7.5 27 7.5H40C40.862 7.5 41.6886 7.84241 42.2981 8.4519C42.9076 9.0614 43.25 9.88805 43.25 10.75V14H23.75V10.75ZM59.5 23.75V56.25C59.5 57.112 59.1576 57.9386 58.5481 58.5481C57.9386 59.1576 57.112 59.5 56.25 59.5H10.75C9.88805 59.5 9.0614 59.1576 8.4519 58.5481C7.84241 57.9386 7.5 57.112 7.5 56.25V23.75C7.5 22.888 7.84241 22.0614 8.4519 21.4519C9.0614 20.8424 9.88805 20.5 10.75 20.5H56.25C57.112 20.5 57.9386 20.8424 58.5481 21.4519C59.1576 22.0614 59.5 22.888 59.5 23.75ZM36.75 36.75H43.25V43.25H36.75V49.75H30.25V43.25H23.75V36.75H30.25V30.25H36.75V36.75Z" fill="#FDC800"/>
<path d="M40 1H27C24.4141 1 21.9342 2.02723 20.1057 3.85571C18.2772 5.68419 17.25 8.16414 17.25 10.75V14H10.75C8.16414 14 5.68419 15.0272 3.85571 16.8557C2.02723 18.6842 1 21.1641 1 23.75V56.25C1 58.8359 2.02723 61.3158 3.85571 63.1443C5.68419 64.9728 8.16414 66 10.75 66H56.25C58.8359 66 61.3158 64.9728 63.1443 63.1443C64.9728 61.3158 66 58.8359 66 56.25V23.75C66 21.1641 64.9728 18.6842 63.1443 16.8557C61.3158 15.0272 58.8359 14 56.25 14H49.75V10.75C49.75 8.16414 48.7228 5.68419 46.8943 3.85571C45.0658 2.02723 42.5859 1 40 1ZM23.75 10.75C23.75 9.88805 24.0924 9.0614 24.7019 8.4519C25.3114 7.84241 26.138 7.5 27 7.5H40C40.862 7.5 41.6886 7.84241 42.2981 8.4519C42.9076 9.0614 43.25 9.88805 43.25 10.75V14H23.75V10.75ZM59.5 23.75V56.25C59.5 57.112 59.1576 57.9386 58.5481 58.5481C57.9386 59.1576 57.112 59.5 56.25 59.5H10.75C9.88805 59.5 9.0614 59.1576 8.4519 58.5481C7.84241 57.9386 7.5 57.112 7.5 56.25V23.75C7.5 22.888 7.84241 22.0614 8.4519 21.4519C9.0614 20.8424 9.88805 20.5 10.75 20.5H56.25C57.112 20.5 57.9386 20.8424 58.5481 21.4519C59.1576 22.0614 59.5 22.888 59.5 23.75ZM36.75 36.75H43.25V43.25H36.75V49.75H30.25V43.25H23.75V36.75H30.25V30.25H36.75V36.75Z" stroke="#FDC800" stroke-width="2"/>
<path d="M40 1H27C24.4141 1 21.9342 2.02723 20.1057 3.85571C18.2772 5.68419 17.25 8.16414 17.25 10.75V14H10.75C8.16414 14 5.68419 15.0272 3.85571 16.8557C2.02723 18.6842 1 21.1641 1 23.75V56.25C1 58.8359 2.02723 61.3158 3.85571 63.1443C5.68419 64.9728 8.16414 66 10.75 66H56.25C58.8359 66 61.3158 64.9728 63.1443 63.1443C64.9728 61.3158 66 58.8359 66 56.25V23.75C66 21.1641 64.9728 18.6842 63.1443 16.8557C61.3158 15.0272 58.8359 14 56.25 14H49.75V10.75C49.75 8.16414 48.7228 5.68419 46.8943 3.85571C45.0658 2.02723 42.5859 1 40 1ZM23.75 10.75C23.75 9.88805 24.0924 9.0614 24.7019 8.4519C25.3114 7.84241 26.138 7.5 27 7.5H40C40.862 7.5 41.6886 7.84241 42.2981 8.4519C42.9076 9.0614 43.25 9.88805 43.25 10.75V14H23.75V10.75ZM59.5 23.75V56.25C59.5 57.112 59.1576 57.9386 58.5481 58.5481C57.9386 59.1576 57.112 59.5 56.25 59.5H10.75C9.88805 59.5 9.0614 59.1576 8.4519 58.5481C7.84241 57.9386 7.5 57.112 7.5 56.25V23.75C7.5 22.888 7.84241 22.0614 8.4519 21.4519C9.0614 20.8424 9.88805 20.5 10.75 20.5H56.25C57.112 20.5 57.9386 20.8424 58.5481 21.4519C59.1576 22.0614 59.5 22.888 59.5 23.75ZM36.75 36.75H43.25V43.25H36.75V49.75H30.25V43.25H23.75V36.75H30.25V30.25H36.75V36.75Z" stroke="black" stroke-width="2"/>
</svg>
